<svg width="297" height="325" viewBox="0 0 297 325" fill="none" xmlns="http://www.w3.org/2000/svg">
<path d="M256 197C256 126.308 198.692 69 128 69C57.3075 69 0 126.308 0 197C0 267.692 57.3075 325 128 325C198.692 325 256 267.692 256 197Z" fill="black"/>
<path d="M127.847 90.3334C81.892 90.4159 44.6641 127.695 44.6641 173.669V289.778C44.6641 295.965 52.1445 299.063 56.5195 294.688L72.4428 278.302L95.3107 301.633C98.0232 304.345 102.42 304.345 105.132 301.633L128 278.302L150.868 301.633C153.58 304.345 157.977 304.345 160.689 301.633L183.557 278.302L199.481 294.688C203.855 299.063 211.336 295.964 211.336 289.777V174.383C211.336 128.463 173.767 90.2513 127.847 90.3334ZM93.2766 201.448C81.7882 201.448 72.4428 192.102 72.4428 180.614C72.4428 169.125 81.7886 159.78 93.2766 159.78C104.764 159.78 114.11 169.126 114.11 180.614C114.11 192.102 104.765 201.448 93.2766 201.448ZM162.723 201.448C151.235 201.448 141.889 192.102 141.889 180.614C141.889 169.125 151.235 159.78 162.723 159.78C174.211 159.78 183.557 169.126 183.557 180.614C183.557 192.102 174.212 201.448 162.723 201.448Z" fill="#FABF46" stroke="#FABF46" stroke-width="0.00213333"/>
<circle cx="217" cy="80" r="80" fill="#FF0000"/>
</svg>
